<?xml version="1.0" encoding="UTF-8" standalone="no"?>
<!-- Generator: Adobe Illustrator 19.0.0, SVG Export Plug-In . SVG Version: 6.00 Build 0)  -->

<svg
   xmlns:dc="http://purl.org/dc/elements/1.1/"
   xmlns:cc="http://creativecommons.org/ns#"
   xmlns:rdf="http://www.w3.org/1999/02/22-rdf-syntax-ns#"
   xmlns:svg="http://www.w3.org/2000/svg"
   xmlns="http://www.w3.org/2000/svg"
   xmlns:sodipodi="http://sodipodi.sourceforge.net/DTD/sodipodi-0.dtd"
   xmlns:inkscape="http://www.inkscape.org/namespaces/inkscape"
   version="1.1"
   id="Layer_1"
   x="0px"
   y="0px"
   viewBox="0 0 432.3 82"
   width="432.3px"
   height="82px"
   style="enable-background:new 0 0 432.3 82;"
   xml:space="preserve"
   inkscape:version="0.91 r13725"
   sodipodi:docname="bg_01.svg"
   inkscape:export-filename="C:\Users\dominik\Documents\scripteco-final\app\images\icons\footer\bg_01.png"
   inkscape:export-xdpi="68.615898"
   inkscape:export-ydpi="68.615898"><metadata
   id="metadata4153"><rdf:RDF><cc:Work
       rdf:about=""><dc:format>image/svg+xml</dc:format><dc:type
         rdf:resource="http://purl.org/dc/dcmitype/StillImage" /><dc:title></dc:title></cc:Work></rdf:RDF></metadata><defs
   id="defs4151" /><sodipodi:namedview
   pagecolor="#ffffff"
   bordercolor="#666666"
   borderopacity="1"
   objecttolerance="10"
   gridtolerance="10"
   guidetolerance="10"
   inkscape:pageopacity="0"
   inkscape:pageshadow="2"
   inkscape:window-width="1920"
   inkscape:window-height="1057"
   id="namedview4149"
   showgrid="false"
   inkscape:zoom="2.8284271"
   inkscape:cx="140.8704"
   inkscape:cy="21.048973"
   inkscape:window-x="1912"
   inkscape:window-y="-8"
   inkscape:window-maximized="1"
   inkscape:current-layer="Layer_1" />
<style
   type="text/css"
   id="style4137">
	.st0{fill:#EBEDEE;}
</style>
<path
   id="XMLID_571_"
   class="st0"
   d="m 107.8052,43.314779 c 0,-7.853218 -6.45129,-19.814274 -14.363258,-19.814274 -7.911966,0 -14.363262,11.961056 -14.363262,19.814274 0.121723,7.369944 5.842683,14.135793 13.146036,14.739887 l 0,23.922111 2.434452,0 0,-23.922111 C 101.96252,57.450572 107.8052,50.684723 107.8052,43.314779 Z"
   inkscape:connector-curvature="0"
   style="fill:#ebedee" />









<path
   inkscape:connector-curvature="0"
   id="XMLID_571_-5"
   class="st0"
   d="m 155.27715,50.992163 c 0,-6.315283 -5.63385,-15.933943 -12.54328,-15.933943 -6.90942,0 -12.54327,9.61866 -12.54327,15.933943 0.10633,5.926649 5.10235,11.367507 11.48028,11.853298 l 0,19.237321 2.12599,0 0,-19.237321 c 6.37792,-0.485791 11.48028,-5.926649 11.48028,-11.853298 z"
   style="fill:#ebedee" /><path
   inkscape:connector-curvature="0"
   id="XMLID_571_-5-4"
   class="st0"
   d="m 126.12636,57.001416 c 0,-6.134534 -1.80447,-15.788118 -7.99374,-15.788118 -6.18923,0 -8.66122,9.550177 -8.66122,15.684711 0.0952,5.757023 1.99589,10.835347 7.70904,11.307234 l 0,13.7152 1.90439,0 c 0.0953,-4.54987 0,-13.7152 0,-13.7152 5.71315,-0.471887 7.04153,-5.446805 7.04153,-11.203827 z"
   style="fill:#ebedee"
   sodipodi:nodetypes="sscccccs" /><path
   id="path4187"
   d="m 390.11388,82.057792 0,-5.563262 -7.06875,0 5.0491,-9.272104 -3.02946,0 5.04911,-9.272103 -3.02947,0 5.04911,-9.272103 5.0491,9.272103 -3.02946,0 5.0491,9.272103 -3.02946,0 5.04911,9.272104 -7.06875,0 0,5.563262 -4.03928,0 z"
   inkscape:connector-curvature="0"
   style="fill:#ebedee;fill-opacity:1" /><g
   style="fill:#000000"
   id="g4208"
   transform="matrix(4.7700946,0,0,5.1802028,66.092694,79.710506)"><path
     id="path4198"
     d="M 0,0 24,0 24,24 0,24 Z"
     inkscape:connector-curvature="0"
     style="fill:none" /><path
     id="path4200"
     d="m 49.666207,-15.137024 -4.585328,6.4529684 3.442135,4.933189 -0.533789,0.6504578 c -2.041146,-2.9209798 -5.58576,-7.7661982 -5.58576,-7.7661982 L 33.800378,0.32979794 60.536109,0.44146703 Z"
     inkscape:connector-curvature="0"
     sodipodi:nodetypes="cccccccc"
     style="fill:#ebedee;fill-opacity:1" /></g><g
   style="fill:#000000"
   id="g4224"
   transform="matrix(1.0361956,0,0,1.0361956,173.17104,59.130729)"><path
     id="path4214"
     d="M 0,0 24,0 24,24 0,24 Z"
     inkscape:connector-curvature="0"
     style="fill:none" /><path
     id="path4216"
     d="m 24.653365,0.22429767 c 1.449036,0 2.634611,-1.18557449 2.634611,-2.63460997 0,-1.4490355 -1.185575,-2.63461 -2.634611,-2.63461 -1.449035,0 -2.63461,1.1855745 -2.63461,2.63461 0,1.44903548 1.185575,2.63460997 2.63461,2.63460997 z M 10.821662,8.7867801 c -3.688454,0 -6.586524,2.8980709 -6.586524,6.5865249 0,3.688454 2.89807,6.586525 6.586524,6.586525 3.688454,0 6.586526,-2.898071 6.586526,-6.586525 0,-3.688454 -2.898072,-6.5865249 -6.586526,-6.5865249 z m 0,11.1970929 c -2.502879,0 -4.610567,-2.107689 -4.610567,-4.610568 0,-2.502879 2.107688,-4.610567 4.610567,-4.610567 2.502881,0 4.610568,2.107688 4.610568,4.610567 0,2.502879 -2.107687,4.610568 -4.610568,4.610568 z m 7.64037,-13.1730504 3.161532,-3.1615319 1.053843,1.0538439 c 1.712498,1.7124965 3.951915,2.7663405 6.718256,2.7663405 l 0,-2.6346099 c -1.975958,0 -3.556723,-0.7903831 -4.742298,-1.9759576 L 22.150486,0.35602813 c -0.658653,-0.52692193 -1.317306,-0.79038294 -2.107689,-0.79038294 -0.790382,0 -1.449035,0.26346101 -1.844227,0.79038294 L 14.510116,4.0444821 c -0.526921,0.526922 -0.790382,1.1855745 -0.790382,1.844227 0,0.7903831 0.263461,1.4490355 0.790382,1.844227 l 4.215377,3.6884539 0,6.586525 2.63461,0 0,-8.167291 -2.898071,-3.0298014 z m 10.8019,1.9759575 c -3.688454,0 -6.586525,2.8980709 -6.586525,6.5865249 0,3.688454 2.898071,6.586525 6.586525,6.586525 3.688454,0 6.586525,-2.898071 6.586525,-6.586525 0,-3.688454 -2.898071,-6.5865249 -6.586525,-6.5865249 z m 0,11.1970929 c -2.502879,0 -4.610567,-2.107689 -4.610567,-4.610568 0,-2.502879 2.107688,-4.610567 4.610567,-4.610567 2.50288,0 4.610568,2.107688 4.610568,4.610567 0,2.502879 -2.107688,4.610568 -4.610568,4.610568 z"
     inkscape:connector-curvature="0"
     style="fill:#ebedee;fill-opacity:1" /></g><path
   inkscape:connector-curvature="0"
   id="XMLID_571_-5-4-7"
   class="st0"
   d="m 78.099754,57.495058 c 0,-6.038002 -1.68956,-15.539679 -7.484664,-15.539679 -5.795081,0 -8.10964,9.399897 -8.10964,15.437899 0.08915,5.666431 1.868783,10.664845 7.218099,11.129306 l 0,13.49938 1.783105,0 c 0.08927,-4.478274 0,-13.49938 0,-13.49938 5.349317,-0.464461 6.5931,-5.361095 6.5931,-11.027526 z"
   style="fill:#ebedee"
   sodipodi:nodetypes="sscccccs" /><g
   style="fill:#000000"
   id="g4276"
   transform="translate(66.206695,66.672056)"><path
     id="path4266"
     d="M 0,0 24,0 24,24 0,24 Z"
     inkscape:connector-curvature="0"
     style="fill:none" /></g><path
   id="path4268"
   d="m 49.296141,37.512089 -43.5402653,0 0,5.560799 43.5402653,0 0,-5.560799 z m 2.721265,27.803995 0,-5.560798 -2.721265,-13.901998 -43.5402653,0 -2.7212667,13.901998 0,5.560798 2.7212667,0 0,16.6824 27.2126643,0 0,-16.6824 10.885067,0 0,16.6824 5.442534,0 0,-16.6824 2.721265,0 z m -24.491399,11.121601 -16.327599,0 0,-11.121601 16.327599,0 0,11.121601 z"
   inkscape:connector-curvature="0"
   style="fill:#ebedee;fill-opacity:1" /><path
   id="path4187-4"
   d="m 366.07059,81.660997 0,-7.006938 -10.36858,0 7.40613,-11.678231 -4.44368,0 7.40613,-11.678231 -4.44368,0 7.40613,-11.67823 7.40613,11.67823 -4.44368,0 7.40613,11.678231 -4.44368,0 7.40613,11.678231 -10.36858,0 0,7.006938 -5.9249,0 z"
   inkscape:connector-curvature="0"
   style="fill:#ebedee;fill-opacity:1" /><path
   id="path4187-4-6"
   d="m 411.87492,81.660997 0,-8.053922 -11.61057,0 8.29326,-13.423204 -4.97595,0 8.29326,-13.423202 -4.97597,0 8.29326,-13.423205 8.29326,13.423205 -4.97596,0 8.29326,13.423202 -4.97595,0 8.29326,13.423204 -11.61057,0 0,8.053922 -6.63459,0 z"
   inkscape:connector-curvature="0"
   style="fill:#ebedee;fill-opacity:1" /></svg>