<?xml version="1.0" encoding="UTF-8" standalone="no"?>
<!-- Created with Inkscape (http://www.inkscape.org/) -->

<svg
   xmlns:dc="http://purl.org/dc/elements/1.1/"
   xmlns:cc="http://creativecommons.org/ns#"
   xmlns:rdf="http://www.w3.org/1999/02/22-rdf-syntax-ns#"
   xmlns:svg="http://www.w3.org/2000/svg"
   xmlns="http://www.w3.org/2000/svg"
   xmlns:xlink="http://www.w3.org/1999/xlink"
   xmlns:sodipodi="http://sodipodi.sourceforge.net/DTD/sodipodi-0.dtd"
   xmlns:inkscape="http://www.inkscape.org/namespaces/inkscape"
   width="210mm"
   height="297mm"
   viewBox="0 0 744.09448819 1052.3622047"
   id="svg2"
   version="1.1"
   inkscape:version="0.91 r13725"
   sodipodi:docname="script_eco_logo_v2.svg">
  <defs
     id="defs4">
    <linearGradient
       inkscape:collect="always"
       id="linearGradient5423">
      <stop
         style="stop-color:#3e272d;stop-opacity:1;"
         offset="0"
         id="stop5425" />
      <stop
         style="stop-color:#3e272d;stop-opacity:0;"
         offset="1"
         id="stop5427" />
    </linearGradient>
    <linearGradient
       inkscape:collect="always"
       xlink:href="#linearGradient5423"
       id="linearGradient5429"
       x1="153.61523"
       y1="407.28581"
       x2="356.74023"
       y2="407.28581"
       gradientUnits="userSpaceOnUse" />
  </defs>
  <sodipodi:namedview
     id="base"
     pagecolor="#ffffff"
     bordercolor="#666666"
     borderopacity="1.0"
     inkscape:pageopacity="0.0"
     inkscape:pageshadow="2"
     inkscape:zoom="0.35"
     inkscape:cx="647.15662"
     inkscape:cy="233.03481"
     inkscape:document-units="px"
     inkscape:current-layer="layer1"
     showgrid="false"
     showguides="false"
     inkscape:window-width="1920"
     inkscape:window-height="1017"
     inkscape:window-x="1912"
     inkscape:window-y="-8"
     inkscape:window-maximized="1" />
  <metadata
     id="metadata7">
    <rdf:RDF>
      <cc:Work
         rdf:about="">
        <dc:format>image/svg+xml</dc:format>
        <dc:type
           rdf:resource="http://purl.org/dc/dcmitype/StillImage" />
        <dc:title></dc:title>
      </cc:Work>
    </rdf:RDF>
  </metadata>
  <g
     inkscape:groupmode="layer"
     id="layer2"
     inkscape:label="Layer 2"
     style="display:inline">
    <path
       style="display:inline;opacity:0.95999995;fill:#388e3c;fill-opacity:1;stroke:#388e3c;stroke-opacity:1;stroke-width:0.6;stroke-miterlimit:4;stroke-dasharray:none"
       d="m 205.73532,340.73538 c -0.25254,-0.49354 -0.81836,-0.76492 -1.39331,-0.66957 -0.57421,0.0943 -1.01431,0.54173 -1.07434,1.09038 -0.0314,0.30283 -1.02164,7.42998 -17.05014,8.81563 -19.02834,1.64373 -26.89349,14.49855 -27.84681,25.00801 -0.0524,0.61298 -0.0943,1.24211 -0.11106,1.86797 -3.66313,-6.0879 -10.493,-9.73353 -19.35066,-10.14323 -11.90506,-0.54802 -12.84644,-5.62813 -12.85157,-5.65715 -0.0629,-0.54802 -0.50507,-0.99021 -1.08116,-1.07916 -0.57632,-0.0943 -1.14601,0.19175 -1.39152,0.69157 -0.063,0.1163 -5.63965,11.80311 8.06633,22.06077 6.21428,4.64903 11.54859,5.93955 15.55623,5.93955 4.80055,-0.002 7.69624,-1.85028 7.91115,-1.99384 l -1.49222,-2.01958 c -0.0838,0.0524 -8.20443,5.23445 -20.35679,-3.86022 -8.29831,-6.20884 -8.73149,-12.73056 -8.13453,-16.31488 1.83318,2.01959 5.66343,4.32787 13.64624,4.69734 9.22083,0.42542 15.96039,4.70865 18.59003,11.76276 -1.22272,-1.1437 -2.68424,-2.22769 -4.42542,-3.13584 -5.04437,-2.62451 -9.92005,-2.44544 -10.12636,-2.43422 l 0.0943,1.84869 c 0.0419,-0.002 4.52602,-0.16975 9.0929,2.20673 3.16172,1.64699 5.53559,4.1489 7.37737,7.04437 1.20909,1.90026 1.71394,4.10531 2.87012,6.04265 l 2.19479,-1.32917 c -0.67899,-0.96505 -1.30633,-2.13894 -1.80258,-3.29072 -0.50296,-1.16793 -0.89904,-2.37606 -1.16131,-3.60853 -0.52812,-2.46314 -0.49669,-5.04574 0.28501,-7.46865 0.38036,-1.21947 0.95667,-2.35353 1.65923,-3.47943 0.69053,-1.12601 1.45472,-2.21964 2.30566,-3.24398 0.95877,-1.15986 2.30397,-2.07451 3.61702,-2.84718 5.91083,-3.47944 11.85906,-3.51327 11.9955,-3.51327 l 0.0109,-1.84702 c -0.25881,-0.008 -6.58773,-0.008 -13.03913,3.79241 -3.37487,1.98576 -5.54576,4.43118 -6.94756,6.78148 1.88778,-9.23183 9.25321,-18.65238 25.08063,-20.02022 11.17348,-0.96505 15.91943,-4.69901 17.93692,-7.56221 1.07099,4.78439 1.30288,14.48399 -10.05648,23.96258 -15.74381,13.13072 -26.55755,6.6089 -27.00434,6.32662 l -1.45974,2.04064 c 0.26615,0.1729 3.70399,2.29383 9.36239,2.29383 5.26956,0 12.46785,-1.84377 20.82413,-8.81239 17.31617,-14.45183 9.75805,-29.79086 9.67956,-29.94404 z"
       id="path4146"
       inkscape:export-xdpi="1804.9951"
       inkscape:export-ydpi="1804.9951"
       inkscape:connector-curvature="0" />
  </g>
  <g
     inkscape:label="Layer 1"
     inkscape:groupmode="layer"
     id="layer1"
     style="display:inline">
    <flowRoot
       xml:space="preserve"
       id="flowRoot4136"
       style="font-style:normal;font-variant:normal;font-weight:bold;font-stretch:normal;font-size:40px;line-height:125%;font-family:Roboto;-inkscape-font-specification:'Roboto, Bold';text-align:start;letter-spacing:0px;word-spacing:0px;writing-mode:lr-tb;text-anchor:start;fill:#3e272d;fill-opacity:1;stroke:none;stroke-width:1px;stroke-linecap:butt;stroke-linejoin:miter;stroke-opacity:1"><flowRegion
         id="flowRegion4138"
         style="fill:url(#linearGradient5429);fill-opacity:1"><rect
           id="rect4140"
           width="494.28571"
           height="194.28572"
           x="151.42857"
           y="349.50507"
           style="fill:#3e272d;fill-opacity:1" /></flowRegion><flowPara
         id="flowPara4142"
         style="font-style:normal;font-variant:normal;font-weight:bold;font-stretch:normal;font-size:80px;line-height:125%;font-family:Roboto;-inkscape-font-specification:'Roboto, Bold';text-align:start;writing-mode:lr-tb;text-anchor:start;fill:#263238;fill-opacity:1">script </flowPara></flowRoot>    <g
       transform="matrix(0.80704482,0,0,0.80704482,367.13908,411.36978)"
       id="g4709"
       style="fill:#000000" />
    <g
       transform="matrix(0.80704482,0,0,0.80704482,367.13908,411.36978)"
       id="g4711"
       style="fill:#000000" />
    <g
       transform="matrix(0.80704482,0,0,0.80704482,367.13908,411.36978)"
       id="g4713"
       style="fill:#000000" />
    <g
       transform="matrix(0.80704482,0,0,0.80704482,367.13908,411.36978)"
       id="g4715"
       style="fill:#000000" />
    <g
       transform="matrix(0.80704482,0,0,0.80704482,367.13908,411.36978)"
       id="g4717"
       style="fill:#000000" />
    <g
       transform="matrix(0.80704482,0,0,0.80704482,367.13908,411.36978)"
       id="g4719"
       style="fill:#000000" />
    <g
       transform="matrix(0.80704482,0,0,0.80704482,367.13908,411.36978)"
       id="g4721"
       style="fill:#000000" />
    <g
       transform="matrix(0.80704482,0,0,0.80704482,367.13908,411.36978)"
       id="g4723"
       style="fill:#000000" />
    <g
       transform="matrix(0.80704482,0,0,0.80704482,367.13908,411.36978)"
       id="g4725"
       style="fill:#000000" />
    <g
       transform="matrix(0.80704482,0,0,0.80704482,367.13908,411.36978)"
       id="g4727"
       style="fill:#000000" />
    <g
       transform="matrix(0.80704482,0,0,0.80704482,367.13908,411.36978)"
       id="g4729"
       style="fill:#000000" />
    <g
       transform="matrix(0.80704482,0,0,0.80704482,367.13908,411.36978)"
       id="g4731"
       style="fill:#000000" />
    <g
       transform="matrix(0.80704482,0,0,0.80704482,367.13908,411.36978)"
       id="g4733"
       style="fill:#000000" />
    <g
       transform="matrix(0.80704482,0,0,0.80704482,367.13908,411.36978)"
       id="g4735"
       style="fill:#000000" />
    <g
       transform="matrix(0.80704482,0,0,0.80704482,367.13908,411.36978)"
       id="g4737"
       style="fill:#000000" />
    <flowRoot
       xml:space="preserve"
       id="flowRoot5395"
       style="font-style:normal;font-variant:normal;font-weight:bold;font-stretch:normal;font-size:40px;line-height:125%;font-family:Roboto;-inkscape-font-specification:'Roboto, Bold';text-align:start;letter-spacing:0px;word-spacing:0px;writing-mode:lr-tb;text-anchor:start;fill:#000000;fill-opacity:1;stroke:none;stroke-width:1px;stroke-linecap:butt;stroke-linejoin:miter;stroke-opacity:1"><flowRegion
         id="flowRegion5397"><rect
           id="rect5399"
           width="107.07617"
           height="81.822357"
           x="401.03055"
           y="340.20465" /></flowRegion><flowPara
         id="flowPara5401" /></flowRoot>    <flowRoot
       xml:space="preserve"
       id="flowRoot5403"
       style="font-style:normal;font-variant:normal;font-weight:bold;font-stretch:normal;font-size:40px;line-height:125%;font-family:Roboto;-inkscape-font-specification:'Roboto, Bold';text-align:start;letter-spacing:0px;word-spacing:0px;writing-mode:lr-tb;text-anchor:start;fill:#000000;fill-opacity:1;stroke:none;stroke-width:1px;stroke-linecap:butt;stroke-linejoin:miter;stroke-opacity:1"><flowRegion
         id="flowRegion5405"><rect
           id="rect5407"
           width="226.27417"
           height="53.538086"
           x="415.1727"
           y="245.7554"
           style="fill:#000000" /></flowRegion><flowPara
         id="flowPara5409" /></flowRoot>    <flowRoot
       xml:space="preserve"
       id="flowRoot5411"
       style="font-style:normal;font-variant:normal;font-weight:bold;font-stretch:normal;font-size:40px;line-height:125%;font-family:Roboto;-inkscape-font-specification:'Roboto, Bold';text-align:start;letter-spacing:0px;word-spacing:0px;writing-mode:lr-tb;text-anchor:start;fill:#388e3c;fill-opacity:1;stroke:none;stroke-width:1px;stroke-linecap:butt;stroke-linejoin:miter;stroke-opacity:1;"
       transform="translate(24.09047,100.27559)"><flowRegion
         id="flowRegion5413"><rect
           id="rect5415"
           width="264.15488"
           height="104.55079"
           x="341.43155"
           y="248.28078"
           style="fill:#388e3c;fill-opacity:1;" /></flowRegion><flowPara
         id="flowPara5417"
         style="font-style:italic;font-variant:normal;font-weight:normal;font-stretch:normal;font-size:80px;line-height:125%;font-family:Roboto;-inkscape-font-specification:'Roboto, Italic';text-align:start;writing-mode:lr-tb;text-anchor:start;fill:#388e3c;fill-opacity:1;"><flowSpan
           style="font-style:italic;font-variant:normal;font-weight:bold;font-stretch:normal;font-size:80px;line-height:50%;font-family:Roboto;-inkscape-font-specification:'Roboto, Bold Italic';text-align:start;writing-mode:lr-tb;text-anchor:start;fill:#388e3c;fill-opacity:1;"
           id="flowSpan5419">.</flowSpan><flowSpan
           style="font-style:italic;font-variant:normal;font-weight:bold;font-stretch:normal;font-size:80px;line-height:125%;font-family:Roboto;-inkscape-font-specification:'Roboto, Bold Italic';text-align:start;writing-mode:lr-tb;text-anchor:start;fill:#388e3c;fill-opacity:1;"
           id="flowSpan5421">eco</flowSpan></flowPara></flowRoot>    <text
       xml:space="preserve"
       style="font-style:normal;font-variant:normal;font-weight:bold;font-stretch:normal;font-size:40px;line-height:125%;font-family:Roboto;-inkscape-font-specification:'Roboto, Bold';text-align:start;letter-spacing:0px;word-spacing:0px;writing-mode:lr-tb;text-anchor:start;fill:#000000;fill-opacity:1;stroke:none;stroke-width:1px;stroke-linecap:butt;stroke-linejoin:miter;stroke-opacity:1"
       x="377.85715"
       y="230.21935"
       id="text4202"
       sodipodi:linespacing="125%"><tspan
         sodipodi:role="line"
         id="tspan4204"
         x="377.85715"
         y="230.21935"></tspan></text>
  </g>
</svg>
