<?xml version="1.0" encoding="UTF-8" standalone="no"?>
<svg
   xmlns:dc="http://purl.org/dc/elements/1.1/"
   xmlns:cc="http://creativecommons.org/ns#"
   xmlns:rdf="http://www.w3.org/1999/02/22-rdf-syntax-ns#"
   xmlns:svg="http://www.w3.org/2000/svg"
   xmlns="http://www.w3.org/2000/svg"
   xmlns:sodipodi="http://sodipodi.sourceforge.net/DTD/sodipodi-0.dtd"
   xmlns:inkscape="http://www.inkscape.org/namespaces/inkscape"
   fill="#000000"
   height="24"
   viewBox="0 0 24 24"
   width="24"
   id="svg4136"
   version="1.1"
   inkscape:version="0.91 r13725"
   sodipodi:docname="ic_einseitig_black_24px.svg">
  <metadata
     id="metadata4146">
    <rdf:RDF>
      <cc:Work
         rdf:about="">
        <dc:format>image/svg+xml</dc:format>
        <dc:type
           rdf:resource="http://purl.org/dc/dcmitype/StillImage" />
        <dc:title></dc:title>
      </cc:Work>
    </rdf:RDF>
  </metadata>
  <defs
     id="defs4144" />
  <sodipodi:namedview
     pagecolor="#ffffff"
     bordercolor="#666666"
     borderopacity="1"
     objecttolerance="10"
     gridtolerance="10"
     guidetolerance="10"
     inkscape:pageopacity="0"
     inkscape:pageshadow="2"
     inkscape:window-width="1920"
     inkscape:window-height="1017"
     id="namedview4142"
     showgrid="false"
     inkscape:zoom="24.807663"
     inkscape:cx="10.970302"
     inkscape:cy="13.663648"
     inkscape:window-x="1912"
     inkscape:window-y="-8"
     inkscape:window-maximized="1"
     inkscape:current-layer="svg4136" />
  <path
     d="M0 0h24v24H0z"
     fill="none"
     id="path4138" />
  <path
     d="M 2.5419304,5 1,5 1,21 c 0,1.1 0.6938687,2 1.5419304,2 l 12.3354436,0 0,-2 -12.3354436,0 0,-16 z M 16.419304,1 5.6257912,1 C 4.7777295,1 4.0838608,1.9 4.0838608,3 l 0,14 c 0,1.1 0.6938687,2 1.5419304,2 l 10.7935128,0 c 0.848062,0 1.54193,-0.9 1.54193,-2 l 0,-14 c 0,-1.1 -0.693868,-2 -1.54193,-2 z m 0,16 -10.7935128,0 0,-14 10.7935128,0 0,14 z"
     id="path4140"
     inkscape:connector-curvature="0" />
</svg>
